<svg id="Layer_1" data-name="Layer 1" xmlns="http://www.w3.org/2000/svg" xmlns:xlink="http://www.w3.org/1999/xlink" viewBox="0 0 712.82 609.87"><defs><style>.cls-1{fill:url(#radial-gradient);}.cls-2{fill:#cd1f26;}</style><radialGradient id="radial-gradient" cx="400" cy="400" r="331.67" gradientUnits="userSpaceOnUse"><stop offset="0" stop-color="#fff"/><stop offset="0.71" stop-color="#ffdf00"/><stop offset="1" stop-color="#fd0"/></radialGradient></defs><path class="cls-1" d="M50.34,104.08s4.5,56.26,1.12,67.52c0,0-12.37,18-4.5,40.52,0,0,1.13,12.37-3.37,16.87,0,0,1.12,23.64,4.5,27,0,0,6.76,18,0,25.89,0,0-4.5,19.12,0,38.26,0,0,9,42.77,2.25,50.65,0,0-7.87,9-4.5,32.63,0,0-7.88,43.88,7.87,70.9,0,0,14.63,42.78-1.12,74.28l-2.25,72s18,33.75,4.5,78.77c0,0,63-15.76,79.9,0,0,0,57.41,12.38,70.91,0,0,0,27-6.74,37.14-1.13,0,0,22.5,3.38,31.51,1.13,0,0,23.63,6.75,29.26,4.5,0,0,33.77-3.38,39.39-3.38,0,0,43.9-7.86,50.64-1.12,0,0,55.16,6.75,69.79,2.25,0,0,25.88-5.63,39.39-1.13,0,0,34.88-9,38.27-6.75,0,0,46.13,4.5,51.76,3.38,0,0,49.52-11.26,60.78-1.13,0,0,21.38-3.38,31.51,0,0,0,28.12-5.63,32.63,1.12,0,0,3.38-41.64-1.12-48.39,0,0,0-48.4,2.25-56.28,0,0,3.37-40.52-4.5-52.9,0,0-1.14-61.9-5.63-74.28,0,0,4.49-63,6.75-68.65,0,0,0-21.38-1.12-28.12l1.12-29.27s-2.26-33.76-5.63-38.27c0,0,3.37-25.87,0-50.64s-6.76-41.65-2.25-48.39a70.65,70.65,0,0,0,6.88-13.24s36.31-19.57,41.94-16.19c0,0-35.31-2.09-44.32-5.46,0,0,1.12-28.14-3.37-30.39,0,0-5.64-31.51,5.63-41.64,0,0-30.39,1.13-38.26,5.63,0,0-38.28,9-54-1.13,0,0-19.13-6.75-28.13,1.13,0,0-40.52-1.13-42.77,6.75,0,0-54,0-58.52-3.37,0,0-32.64-7.88-55.15,1.12,0,0-55.15,9-59.65,4.5,0,0-14.64-24.75-82.16-7.87,0,0-32.64,3.37-42.77-4.51,0,0-75.4-2.25-87.78,4.51,0,0-28.13-14.63-63,0C102.11,101.82,54.84,106.33,50.34,104.08Z" transform="translate(-43.59 -95.06)"/><path class="cls-2" d="M687.57,116c-11.61,12-4.59,31.72,0,44.85-1.38,25-30.82,15.23-44.85,26.22-18.15,8.38-43.76,21.8-46.36,44.84-2.3,28.51,34.77,42.68,27.92,71.22-14.49,8.39-28.84-1.68-40.28-9.3-13.56-16.17-29.42-33.41-49.55-37.21-19.84-1.84-37.22,2.59-54.15,7.78,56.59,40.11,75.79,103.85,79,170.18-6.4,79.63-32.79,155.12-103.7,204.07,26.38-48,36.29-122.15,9.3-173.26-18-36.29-50.33-77.63-92.73-84.93-66.95-18.62-136.8-.16-178,55.67-23.49,35.21-28.06,93.17-7.62,131.45,14.33,32.63,48.79,55.82,80.36,66.5,45,6.56,95.63,1.06,120.63-43.32,17.24-25.8,20.59-70.76,3.05-97.46-16.16-23.48-39.34-36.59-66.48-37.06-21.51-.6-39.34,11.28-52.63,27.77-11.27,13.73-11,36-6.09,52.62,7.18,18,25.93,28,44.83,27.75,9.62-1.08,20-4,24.72-13.88,5.64-9.92,9-24.71,3.2-35.54-5.5-9.3-14-9-22.73-9.91-3.63-.36-7.47-.75-9.76,2.14a28.57,28.57,0,0,1,9.4-11.93c12.68-9.05,30.08-4.7,38.49,4.16,14.45,15.18,15.26,36.29,12.34,55.81-3.34,18.75-21.35,35.22-38.58,40.11-34.35,9.73-70.9,2.3-91.35-27.76-16.46-25.47-21.8-65.43-6.1-92.88,11.44-31,45.11-49,75.8-52.61,46-5.46,84.29,9.95,109.81,48,21,31.29,26.78,71.89,16.92,109.8-12,46.14-54.9,89.06-102,99-18.15,2.46-39,2.61-55.67-3-13,1.66-29.74,3.49-41.79-1.68-29.59,4.11-67.7,20-94.4-1.54-19.51-4.57-40.1,2.29-58.71,0,6.86-6.4,0-15.1,1.52-23.17.76-13,6.26-31.75-4.57-41.78,0-14.35-7-29.75,0-43.32,0-11.45-4.27-23.64,4.57-32.49,1.53-24.7,5.49-54.14-9.3-74.11L67.47,385c17.68-30.66-1.23-67.09,4.57-100.49,1.83-22.73-10.22-47.45-1.52-71.23-8.25-12.36,2.13-24.7,3-37.06,1.82-16,3.65-36-1.53-51.09l1.53-1.53c18.15-.9,39,9.62,54.14-3,25.76-11.15,46.67,7.92,74.27,1.51,40.1-13.86,76.4,13.89,114.53,0,21.66-2.11,47-3.8,64.81,7.79,23.34-2.14,50.34,5.18,69.71-6.26,26.37-4.72,51.54,7.79,77.31,4.73,17.4,6.71,31-5.18,46.36-7.77,18.14,4.89,41.94-4.12,57.2,7.77C648.52,119.48,672,127,687.57,116Z" transform="translate(-43.59 -95.06)"/><path class="cls-2" d="M727.81,174.7c-17.06,6.25-35.22,16.46-44.83,34-11.12,33.26,14.95,58.89,1.53,91.21,9.77,41.62,1.06,90.74,1.52,136.2-5.33,17.51-3.8,39.93,4.74,55.65-8.85,42.56,10.21,83.27,1.5,122.17-8.82,18.13-3.64,42.07,1.55,60.24-13.89-9.78-26.85,5.93-41.79-1.54-20,4.73-37.06-16.16-54.15,0-28.22,4.6-60.54-8.84-86.62,4.73l-15.41-1.51C585.06,604,616.64,485.66,582.48,377.22c-11-32-27.9-63-52.61-88.14,13-8.08,29,1.06,40.26,9.31,14,22.72,25,54,55.66,58.86,15.26,1.68,29.89-1.06,37.08-15.55,18-47.13-52-65.74-29.45-112.86,19.21-34.78,58.26-47.43,94.39-54.14Z" transform="translate(-43.59 -95.06)"/></svg>